<?xml version="1.0" encoding="UTF-8" standalone="no"?> <svg width="24" height="24" viewBox="0 0 24 24" fill="none" xmlns="http://www.w3.org/2000/svg">
<path fill-rule="evenodd" clip-rule="evenodd" d="M0 6C0 4.89543 0.895431 4 2 4H22C23.1046 4 24 4.89543 24 6V8C24 9.15251 23.0762 9.85628 22.3453 10.1093C21.5609 10.3809 21 11.1262 21 12C21 12.8738 21.5609 13.6191 22.3453 13.8907C23.0762 14.1437 24 14.8475 24 16V18C24 19.1046 23.1046 20 22 20H2C0.895432 20 0 19.1046 0 18V16C0 14.8475 0.923793 14.1437 1.65473 13.8907C2.43909 13.6191 3 12.8738 3 12C3 11.1262 2.43909 10.3809 1.65473 10.1093C0.923795 9.85628 0 9.15251 0 8V6ZM14 6H2V7.99732C2.00263 8.00484 2.01143 8.02257 2.03721 8.05111C2.09031 8.10987 2.18601 8.1768 2.30906 8.2194C3.87398 8.76121 5 10.2478 5 12C5 13.7522 3.87397 15.2388 2.30906 15.7806C2.18601 15.8232 2.09031 15.8901 2.03721 15.9489C2.01143 15.9774 2.00263 15.9952 2 16.0027V18H14V17C14 16.4477 14.4477 16 15 16C15.5523 16 16 16.4477 16 17V18H22V16.0027C21.9974 15.9952 21.9886 15.9774 21.9628 15.9489C21.9097 15.8901 21.814 15.8232 21.6909 15.7806C20.126 15.2388 19 13.7522 19 12C19 10.2478 20.126 8.7612 21.6909 8.2194C21.814 8.1768 21.9097 8.10987 21.9628 8.05111C21.9886 8.02257 21.9974 8.00484 22 7.99732V6H16V7C16 7.55228 15.5523 8 15 8C14.4477 8 14 7.55228 14 7V6ZM15 10C15.5523 10 16 10.4477 16 11V13C16 13.5523 15.5523 14 15 14C14.4477 14 14 13.5523 14 13V11C14 10.4477 14.4477 10 15 10Z" fill="#293644"/>
</svg>
